#N canvas 100 540 380 350 14;
#X obj 120 280 dac~;
#N canvas 580 600 540 300 ring 0;
#X obj 40 230 *~;
#X obj 40 260 outlet~;
#X obj 40 200 vline~;
#X obj 40 20 inlet;
#X msg 40 80 1 \$1 \, 0 \$2 20 \, 1 \$1 40 \, 0 \$2 60 \, 1 \$1 80
\, 0 \$2 100 \, 1 \$1 120 \, 0 \$2 140;
#X msg 40 50 2 6;
#X obj 140 130 inlet;
#X obj 140 260 pulse~ 0.5 1050;
#X obj 140 230 * 1050;
#X obj 140 200 @pow 2;
#X floatatom 200 230 0 0 0 0 - - - 0;
#X obj 140 170 rind -0.05 0.05;
#X obj 200 130 loadbang;
#X connect 0 0 1 0;
#X connect 2 0 0 0;
#X connect 3 0 5 0;
#X connect 4 0 2 0;
#X connect 5 0 4 0;
#X connect 6 0 11 0;
#X connect 7 0 0 1;
#X connect 8 0 7 0;
#X connect 9 0 8 0;
#X connect 9 0 10 0;
#X connect 11 0 9 0;
#X connect 12 0 11 0;
#X restore 120 190 pd ring;
#X obj 130 110 ct 4;
#X obj 130 70 metro 210;
#X obj 120 220 *~;
#X obj 230 250 clip 0 1;
#X floatatom 170 280 0 0 1 0 - - - 0;
#X obj 230 220 dbtorms;
#X obj 270 190 + 0.1;
#X msg 270 150 100;
#X msg 230 150 67;
#X obj 230 190 67;
#X obj 220 40 r \$0tgl;
#X obj 220 70 sel;
#X obj 290 40 tgl 15 0 \$0tgl empty empty 17 7 0 10 #000000 #fcfcfc
#fcfcfc 0 1;
#X msg 180 110 0;
#X obj 130 150 sel 1 2 3 0;
#X obj 160 220 r \$0vol;
#X obj 260 100 s \$0vol;
#X msg 260 70 0.025;
#X obj 40 190 t b f;
#X msg 40 160 1;
#X obj 120 250 *~ 0.025;
#X obj 40 250 s \$0done;
#X obj 40 220 del 210;
#X obj 40 130 r \$0test;
#X connect 1 0 4 0;
#X connect 2 1 16 0;
#X connect 3 0 2 0;
#X connect 4 0 22 0;
#X connect 5 0 6 0;
#X connect 6 0 4 1;
#X connect 7 0 5 0;
#X connect 8 0 11 1;
#X connect 9 0 11 0;
#X connect 10 0 11 0;
#X connect 11 0 7 0;
#X connect 11 0 8 0;
#X connect 12 0 3 0;
#X connect 12 0 13 0;
#X connect 13 0 10 0;
#X connect 13 0 15 0;
#X connect 13 0 1 1;
#X connect 15 0 2 0;
#X connect 16 0 1 0;
#X connect 16 1 1 0;
#X connect 16 2 1 0;
#X connect 16 3 11 0;
#X connect 17 0 22 1;
#X connect 19 0 18 0;
#X connect 20 0 1 0;
#X connect 20 0 24 0;
#X connect 20 1 4 1;
#X connect 21 0 20 0;
#X connect 22 0 0 0;
#X connect 22 0 0 1;
#X connect 24 0 23 0;
#X connect 25 0 21 0;
