#N canvas 100 540 380 350 14;
#X declare -path pd;
#X obj 80 290 dac~;
#N canvas 580 600 540 300 ring 0;
#X obj 40 230 *~;
#X obj 40 260 outlet~;
#X obj 40 200 vline~;
#X obj 40 20 inlet;
#X msg 40 80 1 \$1 \, 0 \$2 20 \, 1 \$1 40 \, 0 \$2 60 \, 1 \$1 80 \, 0 \$2 100 \, 1 \$1 120 \, 0 \$2 140;
#X msg 40 50 2 6;
#X obj 140 130 inlet;
#X obj 140 260 pulse~ 0.5 1050;
#X obj 140 230 * 1050;
#X obj 140 200 @pow 2;
#X floatatom 200 230 0 0 0 0 - - - 0;
#X obj 140 170 rind -0.05 0.05;
#X obj 200 130 loadbang;
#X connect 0 0 1 0;
#X connect 2 0 0 0;
#X connect 3 0 5 0;
#X connect 4 0 2 0;
#X connect 5 0 4 0;
#X connect 6 0 11 0;
#X connect 7 0 0 1;
#X connect 8 0 7 0;
#X connect 9 0 8 0;
#X connect 9 0 10 0;
#X connect 11 0 9 0;
#X connect 12 0 11 0;
#X restore 80 190 pd ring;
#X obj 130 110 ct 4;
#X obj 130 70 metro 210;
#X obj 80 230 *~;
#X obj 230 270 clip 0 1;
#X obj 230 240 dbtorms;
#X msg 270 170 100;
#X obj 230 40 r \$0tgl;
#X obj 230 140 sel;
#X obj 300 40 tgl 15 0 \$0tgl empty empty 17 7 0 10 #000000 #fcfcfc #fcfcfc 0 1;
#X msg 180 110 0;
#X obj 100 140 sel 1 2 3 0;
#X obj 120 230 r \$0vol;
#X obj 270 140 s \$0vol;
#X msg 270 110 0.025;
#X obj 40 140 t b f;
#X msg 40 110 1;
#X obj 80 260 *~ 0.025;
#X obj 40 80 r \$0test;
#X obj 40 30 declare -path pd;
#X obj 230 210 f;
#X msg 230 170 64;
#X obj 270 210 + 0.1;
#X obj 150 190 zp~ 10;
#X connect 1 0 4 0;
#X connect 2 1 12 0;
#X connect 3 0 2 0;
#X connect 4 0 18 0;
#X connect 5 0 24 0;
#X connect 6 0 5 0;
#X connect 7 0 21 0;
#X connect 8 0 3 0;
#X connect 8 0 9 0;
#X connect 9 0 22 0;
#X connect 9 0 11 0;
#X connect 9 0 1 1;
#X connect 11 0 2 0;
#X connect 12 0 1 0;
#X connect 12 1 1 0;
#X connect 12 2 1 0;
#X connect 12 3 21 0;
#X connect 13 0 18 1;
#X connect 15 0 14 0;
#X connect 16 0 1 0;
#X connect 16 0 1 1;
#X connect 16 1 24 0;
#X connect 17 0 16 0;
#X connect 18 0 0 0;
#X connect 18 0 0 1;
#X connect 19 0 17 0;
#X connect 21 0 6 0;
#X connect 21 0 23 0;
#X connect 22 0 21 0;
#X connect 23 0 21 1;
#X connect 24 0 4 1;
